<svg width="20" height="24" viewBox="0 0 20 24" fill="none" xmlns="http://www.w3.org/2000/svg">
<path d="M18.828 3.31068L9.95834 0.0238434C9.87033 -0.00794778 9.77419 -0.00794778 9.68618 0.0238434L0.816481 3.31068C0.578469 3.39558 0.372208 3.5531 0.226018 3.76163C0.0798277 3.97015 0.000875115 4.21944 0 4.47528L0 9.50075C0 13.8446 2.10652 18.0007 5.76163 20.9039L9.57188 23.9093C9.64353 23.968 9.73287 24 9.82499 24C9.9171 24 10.0064 23.968 10.0781 23.9093L13.8802 20.9039C17.5326 18.0007 19.6364 13.8446 19.6364 9.50075V4.47528C19.6361 4.22044 19.5583 3.97188 19.4137 3.76347C19.269 3.55506 19.0645 3.39695 18.828 3.31068ZM14.7456 12.7352L12.2962 15.2189L9.17997 18.3871C8.74187 17.9394 8.49603 17.3343 8.49603 16.7036C8.49603 16.073 8.74187 15.4679 9.17997 15.0202L10.6442 13.5355L12.3588 11.7996L12.9548 12.4178L13.7169 9.53663L10.8864 10.2956L11.4824 10.9027C10.5752 11.8226 9.66804 12.7471 8.76084 13.6762C8.20288 14.2449 7.44497 14.5656 6.65385 14.5677C5.86273 14.5697 5.1032 14.253 4.54236 13.6873C3.98151 13.1215 3.66528 12.353 3.66323 11.5508C3.66119 10.7486 3.97351 9.97838 4.53147 9.40968L10.1053 3.75776C10.5447 4.2047 10.7915 4.81008 10.7915 5.44119C10.7915 6.0723 10.5447 6.67767 10.1053 7.12462L6.9292 10.348L6.33045 9.74085L5.5684 12.6248L8.41247 11.8658L7.81372 11.2587L8.40159 10.6626L10.5489 8.48517C10.8189 8.18252 11.1466 7.9386 11.5123 7.76822C11.878 7.59784 12.2739 7.50454 12.6762 7.49398C13.0785 7.48341 13.4788 7.5558 13.8526 7.70676C14.2265 7.85772 14.5663 8.08411 14.8513 8.37219C15.1363 8.66026 15.3607 9.00404 15.5107 9.38267C15.6608 9.76129 15.7335 10.1669 15.7244 10.5748C15.7153 10.9828 15.6246 11.3846 15.4577 11.756C15.2909 12.1273 15.0514 12.4605 14.7538 12.7352H14.7456Z" fill="#1866ED"/>
</svg>
